<?xml version="1.0" encoding="UTF-8"?>
<svg xmlns="http://www.w3.org/2000/svg" xmlns:xlink="http://www.w3.org/1999/xlink" width="188.12pt" height="57.47pt" viewBox="0 0 188.12 57.47" version="1.1">
<g id="surface1">
<path style=" stroke:none;fill-rule:evenodd;fill:rgb(6.274414%,58.822632%,37.254333%);fill-opacity:1;" d="M 160.589844 39.460938 L 160.261719 39.230469 C 157.636719 37.445313 154.800781 35.441406 151.84375 33.277344 C 145.964844 28.953125 140.773438 24.847656 137.144531 21.691406 L 135.875 20.582031 L 136.609375 19.042969 C 139.894531 13.003906 146.296875 8.894531 153.644531 8.894531 C 157.652344 8.894531 161.386719 10.121094 164.480469 12.210938 L 165.59375 13.058594 L 157.320313 13.679688 L 167.292969 14.53125 L 167.335938 14.574219 C 167.78125 15.019531 168.199219 15.480469 168.589844 15.957031 L 168.746094 16.160156 L 157.320313 17.039063 L 170.117188 18.132813 L 170.679688 19.042969 L 170.753906 19.171875 L 157.320313 20.207031 L 171.746094 21.433594 L 172.050781 22.238281 L 157.320313 23.363281 L 172.683594 24.691406 L 172.796875 25.324219 L 172.824219 25.539063 L 157.320313 26.722656 L 173.015625 28.0625 L 173.015625 28.277344 L 172.996094 28.738281 L 157.320313 29.949219 L 172.78125 31.261719 L 172.652344 32.027344 L 157.320313 33.191406 L 172.003906 34.445313 L 171.644531 35.398438 L 157.320313 36.492188 L 170.605469 37.632813 L 169.929688 38.742188 Z M 164.972656 42.359375 L 164.007813 41.722656 C 163.417969 41.347656 162.796875 40.945313 162.175781 40.527344 L 161.484375 40.066406 L 168.53125 40.671875 L 167.335938 41.96875 L 167.089844 42.199219 Z M 153.644531 47.648438 C 142.949219 47.648438 134.277344 38.972656 134.277344 28.277344 C 134.277344 26.273438 134.578125 24.328125 135.140625 22.511719 L 135.183594 22.414063 L 135.328125 22.554688 C 139.378906 26.070313 144.753906 30.324219 150.777344 34.75 C 152.492188 36.003906 154.191406 37.226563 155.835938 38.382813 L 157.695313 39.675781 L 157.320313 39.707031 L 157.796875 39.75 L 158.269531 40.066406 C 159.0625 40.628906 159.84375 41.164063 160.621094 41.664063 L 161.988281 42.589844 L 157.320313 42.933594 L 163.3125 43.453125 L 164.566406 44.261719 L 164.480469 44.332031 C 161.386719 46.421875 157.652344 47.648438 153.644531 47.648438 "/>
<path style=" stroke:none;fill-rule:evenodd;fill:rgb(6.274414%,58.822632%,37.254333%);fill-opacity:1;" d="M 51.453125 16.589844 L 27.875 16.589844 C 25.339844 16.589844 23.484375 16.957031 22.300781 17.699219 C 21.117188 18.445313 20.515625 19.613281 20.515625 21.222656 C 20.515625 22.519531 21.03125 23.492188 22.03125 24.132813 C 23.042969 24.773438 24.554688 25.101563 26.535156 25.101563 L 39.171875 25.101563 C 44.390625 25.101563 48.113281 25.871094 50.324219 27.425781 C 52.535156 28.96875 53.636719 31.550781 53.636719 35.171875 C 53.636719 38.835938 52.363281 41.519531 49.8125 43.242188 C 47.257813 44.957031 43.25 45.824219 37.773438 45.824219 L 12.375 45.824219 L 12.375 39.480469 L 36.261719 39.480469 C 38.984375 39.480469 40.898438 39.164063 42.011719 38.550781 C 43.121094 37.925781 43.679688 36.898438 43.679688 35.457031 C 43.679688 33.972656 43.167969 32.917969 42.136719 32.289063 C 41.125 31.664063 39.386719 31.347656 36.902344 31.347656 L 25.652344 31.347656 C 20.417969 31.347656 16.597656 30.519531 14.183594 28.898438 C 11.757813 27.257813 10.546875 24.660156 10.546875 21.136719 C 10.546875 17.359375 11.816406 14.589844 14.355469 12.851563 C 16.910156 11.113281 20.945313 10.242188 26.480469 10.242188 L 51.453125 10.242188 L 51.453125 16.589844 "/>
<path style=" stroke:none;fill-rule:evenodd;fill:rgb(6.274414%,58.822632%,37.254333%);fill-opacity:1;" d="M 58.46875 10.242188 L 79.25 10.242188 C 86.550781 10.242188 91.941406 11.738281 95.421875 14.734375 C 98.890625 17.730469 100.632813 22.367188 100.632813 28.652344 C 100.632813 31.90625 100.058594 34.6875 98.890625 37.027344 C 97.71875 39.351563 95.980469 41.246094 93.652344 42.703125 C 91.871094 43.828125 89.960938 44.628906 87.921875 45.113281 C 85.878906 45.582031 83.085938 45.824219 79.519531 45.824219 L 58.46875 45.824219 Z M 79.0625 16.445313 L 68.011719 16.445313 L 68.011719 39.621094 L 79.0625 39.621094 C 83.269531 39.621094 86.195313 38.796875 87.792969 37.125 C 89.402344 35.472656 90.203125 32.433594 90.203125 28.027344 C 90.203125 23.648438 89.402344 20.609375 87.792969 18.941406 C 86.195313 17.273438 83.269531 16.445313 79.0625 16.445313 "/>
<path style=" stroke:none;fill-rule:evenodd;fill:rgb(6.274414%,58.822632%,37.254333%);fill-opacity:1;" d="M 124.835938 45.824219 C 120.597656 45.824219 117.445313 45.542969 115.390625 44.984375 C 113.339844 44.425781 111.496094 43.457031 109.871094 42.089844 C 108.359375 40.863281 107.304688 39.480469 106.691406 37.925781 C 106.0625 36.386719 105.765625 34.203125 105.765625 31.394531 L 105.765625 10.242188 L 115.308594 10.242188 L 115.308594 31.148438 C 115.289063 33.230469 115.421875 34.703125 115.648438 35.542969 C 115.890625 36.398438 116.289063 37.070313 116.875 37.597656 C 117.789063 38.4375 118.886719 39.023438 120.199219 39.378906 C 121.523438 39.738281 123.351563 39.90625 125.660156 39.90625 L 132.136719 39.90625 L 132.136719 45.824219 L 124.835938 45.824219 "/>
<path style=" stroke:none;fill-rule:evenodd;fill:rgb(6.274414%,58.822632%,37.254333%);fill-opacity:1;" d="M 150.777344 32.585938 C 137.015625 22.484375 126.652344 13.191406 127.660156 11.835938 C 128.136719 11.171875 131.191406 12.496094 135.789063 15.179688 L 135.933594 15.277344 L 135.558594 15.0625 C 133.398438 13.894531 132.042969 13.378906 131.800781 13.707031 C 131.09375 14.671875 140.066406 22.46875 151.84375 31.117188 C 163.632813 39.75 173.765625 45.988281 174.484375 45.011719 C 174.726563 44.675781 173.820313 43.539063 172.0625 41.839844 L 171.746094 41.535156 L 171.875 41.652344 C 175.808594 45.226563 178 47.761719 177.511719 48.410156 C 176.515625 49.765625 164.539063 42.675781 150.777344 32.585938 "/>
</g>
</svg>
